<svg xmlns="http://www.w3.org/2000/svg" width="2797.5547" height="335.45825" viewBox="0 -5.800001 2797.5547 335.45825"><rect x="0" y="0" width="2797.5547" height="290.2471" fill="#FFFFFF"/><defs><marker id="arrow-0" viewBox="0 0 10 10" refX="5" refY="5" markerUnits="userSpaceOnUse" markerWidth="8" markerHeight="8" orient="auto"><path d="M 0 0 L 10 5 L 0 10 z" fill="#64748B" stroke="#64748B" stroke-width="1" stroke-dasharray="1,0"/></marker><marker id="arrow-start-0" viewBox="0 0 10 10" refX="4.5" refY="5" markerUnits="userSpaceOnUse" markerWidth="8" markerHeight="8" orient="auto"><path d="M 0 5 L 10 10 L 10 0 z" fill="#64748B" stroke="#64748B" stroke-width="1" stroke-dasharray="1,0"/></marker></defs><path id="edge-0" class="edgePath" data-edge-id="edge-0" d="M 198.699,73.706 L 437.812,73.706" fill="none" stroke="#64748B" stroke-width="2"    stroke-linecap="round" stroke-linejoin="round" /><g transform="translate(437.81 73.71) rotate(0.00)"><polygon points="0,0 -7.50,3.90 -7.50,-3.90" fill="#64748B"/></g><path id="edge-1" class="edgePath" data-edge-id="edge-1" d="M 669.354,73.709 L 983.152,73.709" fill="none" stroke="#64748B" stroke-width="2"    stroke-linecap="round" stroke-linejoin="round" /><g transform="translate(983.15 73.71) rotate(0.00)"><polygon points="0,0 -7.50,3.90 -7.50,-3.90" fill="#64748B"/></g><path id="edge-2" class="edgePath" data-edge-id="edge-2" d="M 1116.670,76.043 L 1411.797,76.043" fill="none" stroke="#64748B" stroke-width="2"    stroke-linecap="round" stroke-linejoin="round" /><g transform="translate(1411.80 76.04) rotate(0.00)"><polygon points="0,0 -7.50,3.90 -7.50,-3.90" fill="#64748B"/></g><path id="edge-3" class="edgePath" data-edge-id="edge-3" d="M 82.928,223.247 L 82.928,171.228 Q 82.928,161.228 92.928,161.228 L 1425.633,161.228 Q 1435.633,161.228 1435.633,151.228 L 1435.633,99.209" fill="none" stroke="#64748B" stroke-width="2"    stroke-linecap="round" stroke-linejoin="round" /><g transform="translate(1435.63 99.21) rotate(-90.00)"><polygon points="0,0 -7.50,3.90 -7.50,-3.90" fill="#64748B"/></g><rect data-edge-id="edge-3" data-label-kind="center" x="624.08" y="125.03" width="270.40" height="28.40" rx="2" ry="2" fill="#FFFFFF" fill-opacity="0.00" stroke="#94A3B8" stroke-opacity="0.00" stroke-width="0.8"/><g class="edgeLabel" data-edge-id="edge-3" data-label-kind="center"><text x="759.28" y="142.73" text-anchor="middle" font-family="Inter,ui-sans-serif,system-ui,-apple-system,Segoe UI,DejaVu Sans,Liberation Sans,sans-serif,Noto Color Emoji,Apple Color Emoji,Segoe UI Emoji" font-size="14" fill="#0F172A"><tspan x="759.28" dy="0.00">owns lifetime and references</tspan></text></g><path id="edge-4" class="edgePath" data-edge-id="edge-4" d="M 157.855,248.747 L 437.812,248.747" fill="none" stroke="#64748B" stroke-width="2"    stroke-linecap="round" stroke-linejoin="round" /><g transform="translate(437.81 248.75) rotate(0.00)"><polygon points="0,0 -7.50,3.90 -7.50,-3.90" fill="#64748B"/></g><rect data-edge-id="edge-4" data-label-kind="center" x="199.98" y="188.55" width="195.71" height="52.40" rx="2" ry="2" fill="#FFFFFF" fill-opacity="0.00" stroke="#94A3B8" stroke-opacity="0.00" stroke-width="0.8"/><g class="edgeLabel" data-edge-id="edge-4" data-label-kind="center"><text x="297.83" y="207.75" text-anchor="middle" font-family="Inter,ui-sans-serif,system-ui,-apple-system,Segoe UI,DejaVu Sans,Liberation Sans,sans-serif,Noto Color Emoji,Apple Color Emoji,Segoe UI Emoji" font-size="14" fill="#0F172A"><tspan x="297.83" dy="0.00">supplies context and</tspan><tspan x="297.83" dy="21.00">bindings</tspan></text></g><path id="edge-5" class="edgePath" data-edge-id="edge-5" d="M 595.836,248.747 L 1785.589,248.747 Q 1795.589,248.747 1795.589,238.747 L 1795.589,99.206" fill="none" stroke="#64748B" stroke-width="2"    stroke-linecap="round" stroke-linejoin="round" /><g transform="translate(1795.59 99.21) rotate(-90.00)"><polygon points="0,0 -7.50,3.90 -7.50,-3.90" fill="#64748B"/></g><rect data-edge-id="edge-5" data-label-kind="center" x="1069.85" y="212.55" width="251.73" height="28.40" rx="2" ry="2" fill="#FFFFFF" fill-opacity="0.00" stroke="#94A3B8" stroke-opacity="0.00" stroke-width="0.8"/><g class="edgeLabel" data-edge-id="edge-5" data-label-kind="center"><text x="1195.71" y="230.25" text-anchor="middle" font-family="Inter,ui-sans-serif,system-ui,-apple-system,Segoe UI,DejaVu Sans,Liberation Sans,sans-serif,Noto Color Emoji,Apple Color Emoji,Segoe UI Emoji" font-size="14" fill="#0F172A"><tspan x="1195.71" dy="0.00">schema and delivery policy</tspan></text></g><path id="edge-6" class="edgePath" data-edge-id="edge-6" d="M 1586.158,69.041 L 1768.485,69.041" fill="none" stroke="#64748B" stroke-width="2"    stroke-linecap="round" stroke-linejoin="round" /><g transform="translate(1768.48 69.04) rotate(0.00)"><polygon points="0,0 -7.50,3.90 -7.50,-3.90" fill="#64748B"/></g><rect data-edge-id="edge-6" data-label-kind="center" x="1612.14" y="76.84" width="130.36" height="28.40" rx="2" ry="2" fill="#FFFFFF" fill-opacity="0.00" stroke="#94A3B8" stroke-opacity="0.00" stroke-width="0.8"/><g class="edgeLabel" data-edge-id="edge-6" data-label-kind="center"><text x="1677.32" y="94.54" text-anchor="middle" font-family="Inter,ui-sans-serif,system-ui,-apple-system,Segoe UI,DejaVu Sans,Liberation Sans,sans-serif,Noto Color Emoji,Apple Color Emoji,Segoe UI Emoji" font-size="14" fill="#0F172A"><tspan x="1677.32" dy="0.00">state changes</tspan></text></g><path id="edge-7" class="edgePath" data-edge-id="edge-7" d="M 1975.521,71.369 L 2199.859,71.369" fill="none" stroke="#64748B" stroke-width="2"    stroke-linecap="round" stroke-linejoin="round" /><g transform="translate(2199.86 71.37) rotate(0.00)"><polygon points="0,0 -7.50,3.90 -7.50,-3.90" fill="#64748B"/></g><rect data-edge-id="edge-7" data-label-kind="center" x="1999.17" y="79.17" width="177.04" height="28.40" rx="2" ry="2" fill="#FFFFFF" fill-opacity="0.00" stroke="#94A3B8" stroke-opacity="0.00" stroke-width="0.8"/><g class="edgeLabel" data-edge-id="edge-7" data-label-kind="center"><text x="2087.69" y="96.87" text-anchor="middle" font-family="Inter,ui-sans-serif,system-ui,-apple-system,Segoe UI,DejaVu Sans,Liberation Sans,sans-serif,Noto Color Emoji,Apple Color Emoji,Segoe UI Emoji" font-size="14" fill="#0F172A"><tspan x="2087.69" dy="0.00">schema and patches</tspan></text></g><path id="edge-8" class="edgePath" data-edge-id="edge-8" d="M 2325.208,81.195 L 2566.350,81.195" fill="none" stroke="#64748B" stroke-width="2"    stroke-linecap="round" stroke-linejoin="round" /><g transform="translate(2566.35 81.20) rotate(0.00)"><polygon points="0,0 -7.50,3.90 -7.50,-3.90" fill="#64748B"/></g><rect data-edge-id="edge-8" data-label-kind="center" x="2347.92" y="89.00" width="195.71" height="52.40" rx="2" ry="2" fill="#FFFFFF" fill-opacity="0.00" stroke="#94A3B8" stroke-opacity="0.00" stroke-width="0.8"/><g class="edgeLabel" data-edge-id="edge-8" data-label-kind="center"><text x="2445.78" y="108.20" text-anchor="middle" font-family="Inter,ui-sans-serif,system-ui,-apple-system,Segoe UI,DejaVu Sans,Liberation Sans,sans-serif,Noto Color Emoji,Apple Color Emoji,Segoe UI Emoji" font-size="14" fill="#0F172A"><tspan x="2445.78" dy="0.00">typed intent through</tspan><tspan x="2445.78" dy="21.00">Presentation binding</tspan></text></g><path id="edge-9" class="edgePath" data-edge-id="edge-9" d="M 2566.350,73.195 L 2455.779,73.195 Q 2445.779,73.195 2445.779,63.195 L 2445.779,54.200 Q 2445.779,44.200 2435.779,44.200 L 175.031,44.200 Q 173.229,44.200 173.229,46.002 L 173.229,48.205" fill="none" stroke="#64748B" stroke-width="2"    stroke-linecap="round" stroke-linejoin="round" /><g transform="translate(173.23 48.20) rotate(90.00)"><polygon points="0,0 -7.50,3.90 -7.50,-3.90" fill="#64748B"/></g><rect data-edge-id="edge-9" data-label-kind="center" x="1239.65" y="8.00" width="139.70" height="28.40" rx="2" ry="2" fill="#FFFFFF" fill-opacity="0.00" stroke="#94A3B8" stroke-opacity="0.00" stroke-width="0.8"/><g class="edgeLabel" data-edge-id="edge-9" data-label-kind="center"><text x="1309.50" y="25.70" text-anchor="middle" font-family="Inter,ui-sans-serif,system-ui,-apple-system,Segoe UI,DejaVu Sans,Liberation Sans,sans-serif,Noto Color Emoji,Apple Color Emoji,Segoe UI Emoji" font-size="14" fill="#0F172A"><tspan x="1309.50" dy="0.00">domain command</tspan></text></g><rect x="8.00" y="223.25" width="149.86" height="51.00" rx="3" ry="3" fill="#F8FAFC" stroke="#94A3B8" stroke-width="1" stroke-linejoin="round" stroke-linecap="round"/><text x="82.93" y="252.25" text-anchor="middle" font-family="Inter,ui-sans-serif,system-ui,-apple-system,Segoe UI,DejaVu Sans,Liberation Sans,sans-serif,Noto Color Emoji,Apple Color Emoji,Segoe UI Emoji" font-size="14" fill="#0F172A"><tspan x="82.93" dy="0.00">Composition</tspan></text><rect x="8.00" y="48.20" width="190.70" height="51.00" rx="3" ry="3" fill="#F8FAFC" stroke="#94A3B8" stroke-width="1" stroke-linejoin="round" stroke-linecap="round"/><text x="103.35" y="77.20" text-anchor="middle" font-family="Inter,ui-sans-serif,system-ui,-apple-system,Segoe UI,DejaVu Sans,Liberation Sans,sans-serif,Noto Color Emoji,Apple Color Emoji,Segoe UI Emoji" font-size="14" fill="#0F172A"><tspan x="103.35" dy="0.00">Domain contracts</tspan></text><rect x="437.81" y="223.25" width="158.02" height="51.00" rx="3" ry="3" fill="#F8FAFC" stroke="#94A3B8" stroke-width="1" stroke-linejoin="round" stroke-linecap="round"/><text x="516.82" y="252.25" text-anchor="middle" font-family="Inter,ui-sans-serif,system-ui,-apple-system,Segoe UI,DejaVu Sans,Liberation Sans,sans-serif,Noto Color Emoji,Apple Color Emoji,Segoe UI Emoji" font-size="14" fill="#0F172A"><tspan x="516.82" dy="0.00">Presentation</tspan></text><rect x="2566.35" y="48.19" width="215.20" height="51.00" rx="3" ry="3" fill="#F8FAFC" stroke="#94A3B8" stroke-width="1" stroke-linejoin="round" stroke-linecap="round"/><text x="2673.95" y="77.19" text-anchor="middle" font-family="Inter,ui-sans-serif,system-ui,-apple-system,Segoe UI,DejaVu Sans,Liberation Sans,sans-serif,Noto Color Emoji,Apple Color Emoji,Segoe UI Emoji" font-size="14" fill="#0F172A"><tspan x="2673.95" dy="0.00">Command coordinator</tspan></text><rect x="1411.80" y="48.21" width="174.36" height="51.00" rx="3" ry="3" fill="#F8FAFC" stroke="#94A3B8" stroke-width="1" stroke-linejoin="round" stroke-linecap="round"/><text x="1498.98" y="77.21" text-anchor="middle" font-family="Inter,ui-sans-serif,system-ui,-apple-system,Segoe UI,DejaVu Sans,Liberation Sans,sans-serif,Noto Color Emoji,Apple Color Emoji,Segoe UI Emoji" font-size="14" fill="#0F172A"><tspan x="1498.98" dy="0.00">Representation</tspan></text><rect x="1768.48" y="48.21" width="207.04" height="51.00" rx="3" ry="3" fill="#F8FAFC" stroke="#94A3B8" stroke-width="1" stroke-linejoin="round" stroke-linecap="round"/><text x="1872.00" y="77.21" text-anchor="middle" font-family="Inter,ui-sans-serif,system-ui,-apple-system,Segoe UI,DejaVu Sans,Liberation Sans,sans-serif,Noto Color Emoji,Apple Color Emoji,Segoe UI Emoji" font-size="14" fill="#0F172A"><tspan x="1872.00" dy="0.00">Delivery scheduler</tspan></text><rect x="437.81" y="48.21" width="231.54" height="51.00" rx="3" ry="3" fill="#F8FAFC" stroke="#94A3B8" stroke-width="1" stroke-linejoin="round" stroke-linecap="round"/><text x="553.58" y="77.21" text-anchor="middle" font-family="Inter,ui-sans-serif,system-ui,-apple-system,Segoe UI,DejaVu Sans,Liberation Sans,sans-serif,Noto Color Emoji,Apple Color Emoji,Segoe UI Emoji" font-size="14" fill="#0F172A"><tspan x="553.58" dy="0.00">Transport and session</tspan></text><rect x="983.15" y="48.21" width="133.52" height="51.00" rx="3" ry="3" fill="#F8FAFC" stroke="#94A3B8" stroke-width="1" stroke-linejoin="round" stroke-linecap="round"/><text x="1049.91" y="77.21" text-anchor="middle" font-family="Inter,ui-sans-serif,system-ui,-apple-system,Segoe UI,DejaVu Sans,Liberation Sans,sans-serif,Noto Color Emoji,Apple Color Emoji,Segoe UI Emoji" font-size="14" fill="#0F172A"><tspan x="1049.91" dy="0.00">UI Domain</tspan></text><rect x="2199.86" y="48.20" width="125.35" height="51.00" rx="3" ry="3" fill="#F8FAFC" stroke="#94A3B8" stroke-width="1" stroke-linejoin="round" stroke-linecap="round"/><text x="2262.53" y="77.20" text-anchor="middle" font-family="Inter,ui-sans-serif,system-ui,-apple-system,Segoe UI,DejaVu Sans,Liberation Sans,sans-serif,Noto Color Emoji,Apple Color Emoji,Segoe UI Emoji" font-size="14" fill="#0F172A"><tspan x="2262.53" dy="0.00">Renderer</tspan></text></svg>